<svg viewBox="0 0 40 40" fill="none" xmlns="http://www.w3.org/2000/svg">
    <rect x="-0.00012207" width="40" height="40" rx="8" fill="url(#paint0_linear_5109_217778)"></rect>
    <g filter="url(#filter0_d_5109_217778)">
        <path d="M30.3316 20C30.3316 20.1078 30.3564 20.2141 30.4041 20.3108L31.2992 22.142C31.7975 23.1615 31.4027 24.3769 30.4002 24.9087L28.5997 25.864C28.5044 25.9143 28.4218 25.9857 28.3585 26.0729C28.2951 26.1602 28.2527 26.2608 28.2344 26.367L27.8822 28.3745C27.6861 29.4923 26.6527 30.2434 25.5287 30.0844L23.5106 29.799C23.2929 29.7684 23.0774 29.8382 22.9194 29.9911L21.4544 31.4082C21.0467 31.8027 20.5232 32 19.9999 32C19.4765 32.0001 18.9533 31.8028 18.5454 31.4082L17.0805 29.9911C17.0033 29.9159 16.9098 29.8595 16.8073 29.8261C16.7048 29.7928 16.596 29.7835 16.4893 29.799L14.4712 30.0844C14.3705 30.0987 14.2702 30.1056 14.1715 30.1056C13.1687 30.1057 12.2962 29.3921 12.1177 28.3745L11.7655 26.3669C11.7472 26.2607 11.7048 26.1601 11.6414 26.0729C11.578 25.9857 11.4955 25.9142 11.4001 25.864L9.59964 24.9087C8.59718 24.3768 8.2023 23.1616 8.70068 22.142L9.5958 20.3109C9.64344 20.2142 9.66822 20.1079 9.66822 20.0001C9.66822 19.8923 9.64344 19.7859 9.5958 19.6892L8.70072 17.8581C8.20235 16.8385 8.59722 15.6232 9.59969 15.0914L11.4001 14.1361C11.4955 14.0858 11.5781 14.0143 11.6414 13.9271C11.7048 13.8399 11.7472 13.7393 11.7655 13.6331L12.1177 11.6256C12.3137 10.5078 13.3473 9.7566 14.4711 9.91564L16.4892 10.2011C16.5959 10.2165 16.7047 10.2072 16.8072 10.1739C16.9097 10.1406 17.0032 10.0841 17.0805 10.009L18.5454 8.59171C19.361 7.80258 20.6388 7.80262 21.4545 8.59171L22.9194 10.0088C22.9966 10.084 23.0901 10.1405 23.1926 10.1738C23.2951 10.2071 23.4039 10.2164 23.5106 10.201L25.5287 9.9155C26.6522 9.75655 27.6861 10.5077 27.8822 11.6254L28.2343 13.633C28.2526 13.7393 28.2951 13.8399 28.3585 13.9271C28.4218 14.0143 28.5044 14.0857 28.5997 14.136L30.4002 15.0913C31.4027 15.6232 31.7975 16.8384 31.2992 17.858L30.4041 19.6891C30.3564 19.7858 30.3316 19.8922 30.3316 20Z"
              fill="white"></path>
        <path fill-rule="evenodd" clip-rule="evenodd"
              d="M23.7908 29.8385L23.5106 29.7989C23.2929 29.7683 23.0774 29.8381 22.9194 29.991L21.4544 31.4081C21.0467 31.8026 20.5232 31.9999 19.9999 31.9999C19.4765 32 18.9533 31.8027 18.5454 31.4081L17.0805 29.991C17.0033 29.9158 16.9098 29.8594 16.8073 29.826C16.7048 29.7927 16.596 29.7834 16.4893 29.7989L14.4712 30.0843C14.3705 30.0986 14.2702 30.1055 14.1715 30.1055C13.1687 30.1056 12.2962 29.392 12.1177 28.3744L11.7655 26.3668C11.7472 26.2606 11.7048 26.16 11.6414 26.0728C11.578 25.9856 11.4955 25.9141 11.4001 25.8639L9.59964 24.9086C8.59718 24.3767 8.2023 23.1615 8.70068 22.1419L9.5958 20.3108C9.64344 20.2141 9.66822 20.1078 9.66822 20C9.66822 19.8922 9.64344 19.7858 9.5958 19.6891L9.36988 19.2269C9.50829 19.4228 9.6238 19.6378 9.71187 19.869L11.2695 23.9579C12.3327 26.7486 14.8617 28.7148 17.8284 29.0572L23.0196 29.6561C23.2883 29.6871 23.5464 29.7492 23.7908 29.8385Z"
              fill="#FFDDC9"></path>
        <rect x="14.9999" y="17" width="10" height="2" rx="1" fill="#EF6618"></rect>
        <rect x="14.9999" y="21" width="10" height="2" rx="1" fill="#EF6618"></rect>
    </g>
    <defs>
        <filter id="filter0_d_5109_217778" x="5.99988" y="6.99988" width="28" height="28.0001"
                filterUnits="userSpaceOnUse" color-interpolation-filters="sRGB">
            <feFlood flood-opacity="0" result="BackgroundImageFix"></feFlood>
            <feColorMatrix in="SourceAlpha" type="matrix" values="0 0 0 0 0 0 0 0 0 0 0 0 0 0 0 0 0 0 127 0"
                           result="hardAlpha"></feColorMatrix>
            <feOffset dy="1"></feOffset>
            <feGaussianBlur stdDeviation="1"></feGaussianBlur>
            <feComposite in2="hardAlpha" operator="out"></feComposite>
            <feColorMatrix type="matrix" values="0 0 0 0 0 0 0 0 0 0 0 0 0 0 0 0 0 0 0.16 0"></feColorMatrix>
            <feBlend mode="normal" in2="BackgroundImageFix" result="effect1_dropShadow_5109_217778"></feBlend>
            <feBlend mode="normal" in="SourceGraphic" in2="effect1_dropShadow_5109_217778" result="shape"></feBlend>
        </filter>
        <linearGradient id="paint0_linear_5109_217778" x1="19.9999" y1="0" x2="19.9999" y2="40"
                        gradientUnits="userSpaceOnUse">
            <stop stop-color="#FF9640"></stop>
            <stop offset="1" stop-color="#EE6315"></stop>
        </linearGradient>
    </defs>
</svg>