<svg xmlns="http://www.w3.org/2000/svg" width="20" height="20" viewBox="0 0 20 20" fill="none" aria-hidden="true"
     focusable="false">
    <path d="M7.99245 10.8334C8.45078 10.8334 8.82578 11.2084 8.82578 11.6667C8.82578 12.1251 8.45078 12.5001 7.99245 12.5001C7.53412 12.5001 7.15911 12.1251 7.15911 11.6667C7.15911 11.2084 7.53412 10.8334 7.99245 10.8334ZM7.99245 9.16675C6.60912 9.16675 5.49245 10.2834 5.49245 11.6667C5.49245 13.0501 6.60912 14.1667 7.99245 14.1667C9.37578 14.1667 10.4924 13.0501 10.4924 11.6667C10.4924 10.2834 9.37578 9.16675 7.99245 9.16675ZM15.0758 7.50008L15.9841 5.49175L17.9924 4.58341L15.9841 3.67508L15.0758 1.66675L14.1674 3.67508L12.1591 4.58341L14.1674 5.49175L15.0758 7.50008ZM17.3925 10.6001L16.7424 9.16675L16.0924 10.6001L14.6591 11.2501L16.0924 11.9001L16.7424 13.3334L17.3925 11.9001L18.8258 11.2501L17.3925 10.6001ZM13.2008 11.6667C13.2008 11.5667 13.2008 11.4584 13.1924 11.3584L14.8091 10.1334L12.7258 6.52508L10.8591 7.30842C10.6924 7.20008 10.5091 7.09175 10.3258 7.00008L10.0758 5.00008H5.90911L5.65911 7.00841C5.47578 7.10008 5.30078 7.20841 5.12578 7.31675L3.25911 6.52508L1.17578 10.1334L2.79245 11.3584C2.78411 11.4584 2.78411 11.5667 2.78411 11.6667C2.78411 11.7667 2.78411 11.8751 2.79245 11.9751L1.17578 13.2001L3.25911 16.8084L5.12578 16.0251C5.29245 16.1334 5.47578 16.2417 5.65911 16.3334L5.90911 18.3334H10.0758L10.3258 16.3251C10.5091 16.2334 10.6841 16.1334 10.8591 16.0167L12.7258 16.8001L14.8091 13.1917L13.1924 11.9667C13.2008 11.8751 13.2008 11.7667 13.2008 11.6667ZM12.0174 14.7001L10.5758 14.0917C10.1091 14.5917 9.49245 14.9584 8.80078 15.1167L8.60078 16.6667H7.38412L7.19245 15.1167C6.50078 14.9584 5.88411 14.5917 5.41745 14.0917L3.97578 14.7001L3.36745 13.6417L4.60911 12.7001C4.50911 12.3751 4.45911 12.0334 4.45911 11.6751C4.45911 11.3167 4.50911 10.9751 4.60911 10.6501L3.36745 9.70842L3.97578 8.65008L5.41745 9.25841C5.88411 8.75841 6.50078 8.39175 7.19245 8.23342L7.38412 6.66675H8.60912L8.80078 8.21675C9.49245 8.37508 10.1091 8.74175 10.5758 9.24175L12.0174 8.63341L12.6258 9.69175L11.3841 10.6334C11.4841 10.9584 11.5341 11.3001 11.5341 11.6584C11.5341 12.0167 11.4841 12.3584 11.3841 12.6834L12.6258 13.6251L12.0174 14.7001Z"
          fill="#4B5563"></path>
</svg>